<svg xmlns="http://www.w3.org/2000/svg" viewBox="0 0 64 64" width="64" height="64">
  <!-- Fundo Azul Escuro -->
  <rect width="64" height="64" rx="16" fill="#081726"/>
  
  <!-- Gota d'água Principal (Gradiente Ciano/Azul) -->
  <defs>
    <linearGradient id="gradGota" x1="0%" y1="0%" x2="100%" y2="100%">
      <stop offset="0%" stop-color="#00a2e8" />
      <stop offset="100%" stop-color="#0073a8" />
    </linearGradient>
  </defs>
  <path d="M32 12C32 12 18 28 18 39C18 46.7 24.3 53 32 53C39.7 53 46 46.7 46 39C46 28 32 12 32 12Z" fill="url(#gradGota)"/>
  
  <!-- Onda Verde na Base da Gota -->
  <path d="M20 42C24 46 30 48 35 46C41 44 44 40 46 39C46 46.7 39.7 53 32 53C24.3 53 18 46.7 18 39C18 39.5 18.5 40.5 20 42Z" fill="#74cb11"/>

  <!-- Brilho Laranja no Canto -->
  <path d="M46 12L48 18L54 20L48 22L46 28L44 22L38 20L44 18Z" fill="#f25835"/>
  
  <!-- Ponto de Luz Azul Claro -->
  <circle cx="26" cy="32" r="3" fill="#8ce1ff" opacity="0.8"/>
</svg>
